<svg id="Layer_1" data-name="Layer 1" xmlns="http://www.w3.org/2000/svg" xmlns:xlink="http://www.w3.org/1999/xlink" viewBox="0 0 523.95 454.47"><defs><linearGradient id="linear-gradient" x1="302.27" y1="133.36" x2="314.18" y2="207.09" gradientUnits="userSpaceOnUse"><stop offset="0" stop-color="#010101" stop-opacity="0"/><stop offset="0.95" stop-color="#010101"/></linearGradient><linearGradient id="linear-gradient-2" x1="255.33" y1="152.68" x2="274.87" y2="217.71" xlink:href="#linear-gradient"/><linearGradient id="linear-gradient-3" x1="301.75" y1="166.92" x2="309.08" y2="215.46" xlink:href="#linear-gradient"/><linearGradient id="linear-gradient-4" x1="209.59" y1="158.31" x2="214.78" y2="247.76" xlink:href="#linear-gradient"/><linearGradient id="linear-gradient-5" x1="279.13" y1="436.86" x2="346.91" y2="72.31" xlink:href="#linear-gradient"/><linearGradient id="linear-gradient-6" x1="231.79" y1="131.11" x2="136.07" y2="282.7" gradientTransform="translate(-51.09 143.81) rotate(-33.26)" xlink:href="#linear-gradient"/><linearGradient id="linear-gradient-7" x1="306.93" y1="137.23" x2="373.34" y2="278.29" gradientTransform="translate(158.27 -157.56) rotate(36.45)" xlink:href="#linear-gradient"/><linearGradient id="linear-gradient-8" x1="247.31" y1="387.57" x2="269.29" y2="120.11" gradientUnits="userSpaceOnUse"><stop offset="0" stop-color="#010101" stop-opacity="0"/><stop offset="1" stop-color="#010101"/></linearGradient><linearGradient id="linear-gradient-9" x1="261.99" y1="201.06" x2="261.99" y2="348.83" xlink:href="#linear-gradient"/><linearGradient id="linear-gradient-10" x1="280.79" y1="89.01" x2="287.2" y2="150.38" xlink:href="#linear-gradient"/><linearGradient id="linear-gradient-11" x1="240.8" y1="83.21" x2="247.21" y2="144.57" xlink:href="#linear-gradient"/></defs><title>Order Cnnfirmed 3</title><path d="M251.62,5.86c-29.69-2.29-59.93-4.55-89,1.89s-57.29,23-70.14,49.34c-16.66,34.13-4.34,75.61-16,111.67-6.41,19.82-19.63,36.69-31.47,54C26,250.5,9.73,281,4.22,314S5.06,383.12,27,408.83C62.11,450.1,124.22,454.14,179.08,455l194.2,2.92c25.15.38,51.33.55,74.07-10C483.61,431,502.18,391.46,514.21,354c11.27-35.09,19.08-74.5,2.75-107.63-9.19-18.64-25.4-33.74-32-53.42-8.44-25.41.82-52.95,0-79.66C481.38-7.82,334.06,12.21,251.62,5.86Z" transform="translate(-2.35 -3.53)" fill="#3670ff" opacity="0.24" style="isolation:isolate"/><path d="M332.1,137.23a4.93,4.93,0,0,0-.61-2.66,4.67,4.67,0,0,0-1.58-1.27,67.19,67.19,0,0,0-26.07-8.71,8.6,8.6,0,0,0-4.48.34c-2,.87-3,2.95-3.95,4.88l-17.7,37c-.47,1-.94,2.12-.47,3.09a3.62,3.62,0,0,0,1.17,1.23,69.47,69.47,0,0,0,50.61,13,15.46,15.46,0,0,0,7.07-2.35c8-5.84,1.62-13.32-2.21-18.78C329.45,156.69,332.37,144.83,332.1,137.23Z" transform="translate(-2.35 -3.53)" fill="#3670ff"/><path d="M332.1,137.23a4.93,4.93,0,0,0-.61-2.66,4.67,4.67,0,0,0-1.58-1.27,67.19,67.19,0,0,0-26.07-8.71,8.6,8.6,0,0,0-4.48.34c-2,.87-3,2.95-3.95,4.88l-17.7,37c-.47,1-.94,2.12-.47,3.09a3.62,3.62,0,0,0,1.17,1.23,69.47,69.47,0,0,0,50.61,13,15.46,15.46,0,0,0,7.07-2.35c8-5.84,1.62-13.32-2.21-18.78C329.45,156.69,332.37,144.83,332.1,137.23Z" transform="translate(-2.35 -3.53)" fill="url(#linear-gradient)"/><path d="M243.4,143.25a6.17,6.17,0,0,1,1.75-2.28,6.06,6.06,0,0,1,3.21-.8,133.89,133.89,0,0,1,16.75.55,55.66,55.66,0,0,1,10.77,1.5,27.74,27.74,0,0,1,7.28,3.17,6.25,6.25,0,0,1,2.57,2.47,7.08,7.08,0,0,1,.42,3.34c-.17,4.24-.39,8.48-.63,12.71-.48,8.51-1.08,17.22-4.54,25a7,7,0,0,1-1.71,2.58,6.4,6.4,0,0,1-2.38,1.1,30.68,30.68,0,0,1-7.09.91,100,100,0,0,1-23.92-2,45.66,45.66,0,0,1-10.67-3.36,3,3,0,0,1-1.4-1.1,3.07,3.07,0,0,1-.25-1.56q.12-9.59.82-19.13c.21-2.82.08-6.06.93-8.77.54-1.73,1.86-3.08,2.78-4.62C240,149.8,241.63,146.48,243.4,143.25Z" transform="translate(-2.35 -3.53)" fill="#3670ff"/><path d="M243.4,143.25a6.17,6.17,0,0,1,1.75-2.28,6.06,6.06,0,0,1,3.21-.8,133.89,133.89,0,0,1,16.75.55,55.66,55.66,0,0,1,10.77,1.5,27.74,27.74,0,0,1,7.28,3.17,6.25,6.25,0,0,1,2.57,2.47,7.08,7.08,0,0,1,.42,3.34c-.17,4.24-.39,8.48-.63,12.71-.48,8.51-1.08,17.22-4.54,25a7,7,0,0,1-1.71,2.58,6.4,6.4,0,0,1-2.38,1.1,30.68,30.68,0,0,1-7.09.91,100,100,0,0,1-23.92-2,45.66,45.66,0,0,1-10.67-3.36,3,3,0,0,1-1.4-1.1,3.07,3.07,0,0,1-.25-1.56q.12-9.59.82-19.13c.21-2.82.08-6.06.93-8.77.54-1.73,1.86-3.08,2.78-4.62C240,149.8,241.63,146.48,243.4,143.25Z" transform="translate(-2.35 -3.53)" fill="url(#linear-gradient-2)"/><path d="M340.15,158.47c1.68-.16,3.49-.29,4.93.59a7.6,7.6,0,0,1,2.65,3.62,70.16,70.16,0,0,1,5.94,32,717.91,717.91,0,0,1-92.24,5c-7.11-.08-5-13.48-2-17.56,4.2-5.59,14.3-7.8,20.44-10A254.32,254.32,0,0,1,340.15,158.47Z" transform="translate(-2.35 -3.53)" fill="#3670ff"/><path d="M340.15,158.47c1.68-.16,3.49-.29,4.93.59a7.6,7.6,0,0,1,2.65,3.62,70.16,70.16,0,0,1,5.94,32,717.91,717.91,0,0,1-92.24,5c-7.11-.08-5-13.48-2-17.56,4.2-5.59,14.3-7.8,20.44-10A254.32,254.32,0,0,1,340.15,158.47Z" transform="translate(-2.35 -3.53)" fill="url(#linear-gradient-3)"/><path d="M166.72,162.55a3,3,0,0,1,3.45-3.45q39.17-3.07,78.48-3.46a4.47,4.47,0,0,1,2.41.44c1.08.67,1.36,2.07,1.56,3.32q2.08,13.68,4.19,27.36a3.85,3.85,0,0,1-.2,2.56c-.6,1-1.93,1.24-3.09,1.36a597,597,0,0,1-67,3.37c-7.06-.05-16.16,1.69-19.69-5.85C163.62,181.31,166.11,169.72,166.72,162.55Z" transform="translate(-2.35 -3.53)" fill="#3670ff"/><path d="M166.72,162.55a3,3,0,0,1,3.45-3.45q39.17-3.07,78.48-3.46a4.47,4.47,0,0,1,2.41.44c1.08.67,1.36,2.07,1.56,3.32q2.08,13.68,4.19,27.36a3.85,3.85,0,0,1-.2,2.56c-.6,1-1.93,1.24-3.09,1.36a597,597,0,0,1-67,3.37c-7.06-.05-16.16,1.69-19.69-5.85C163.62,181.31,166.11,169.72,166.72,162.55Z" transform="translate(-2.35 -3.53)" fill="url(#linear-gradient-4)"/><path d="M192,389.42q58.13,2.49,116.33,2.17c-2.93,4.2-.38,10.4,3.94,13.14s9.71,3,14.82,3.13L401.89,410c10.27.3,21.29.39,29.84-5.32a10.71,10.71,0,0,0,4.1-4.4c2.48-5.69-3.28-11.38-8.37-14.95l-21-14.75c-9.86-6.91-19.83-13.88-31-18.3-15.6-6.15-32.71-7-49.47-7.51-38.55-1.12-78.1-2.11-116.53,1.64a95.87,95.87,0,0,0-34.74,9.84c-6.82,3.39-33.06,11-34,18.37C138.69,389.34,183.29,389,192,389.42Z" transform="translate(-2.35 -3.53)" fill="url(#linear-gradient-5)"/><rect x="204.8" y="91.47" width="20.76" height="131.9" rx="10.38" transform="translate(119.25 -95.76) rotate(33.26)" fill="#3670ff"/><rect x="308" y="95.59" width="20.76" height="131.9" rx="10.38" transform="translate(-36.04 217.24) rotate(-36.45)" fill="#3670ff"/><rect x="204.8" y="91.47" width="20.76" height="131.9" rx="10.38" transform="translate(119.25 -95.76) rotate(33.26)" fill="url(#linear-gradient-6)"/><rect x="308" y="95.59" width="20.76" height="131.9" rx="10.38" transform="translate(-36.04 217.24) rotate(-36.45)" fill="url(#linear-gradient-7)"/><polygon points="340.76 366.54 174.67 366.54 154.82 214.5 368.24 214.5 340.76 366.54" fill="#3670ff"/><polygon points="368.24 214.48 340.75 366.53 174.68 366.53 154.83 214.48 368.24 214.48" fill="url(#linear-gradient-8)"/><path d="M241.14,269.93V370.06H213V269.93a14.06,14.06,0,0,1,28.11,0Z" transform="translate(-2.35 -3.53)" fill="#3670ff"/><path d="M302.2,269.93V370.06H274.09V269.93a14.06,14.06,0,0,1,28.11,0Z" transform="translate(-2.35 -3.53)" fill="#3670ff"/><circle cx="377.75" cy="323.31" r="81.7" fill="#fff"/><path d="M367.39,375a11.08,11.08,0,0,1-7.82-3.24L323.77,336a11.06,11.06,0,0,1,15.64-15.63l27.43,27.43,56-64.22a11.06,11.06,0,1,1,16.67,14.53l-63.8,73.14a11,11,0,0,1-8,3.77A2.23,2.23,0,0,1,367.39,375Z" transform="translate(-2.35 -3.53)" fill="#3670ff"/><rect x="131.92" y="185.18" width="260.13" height="45.8" rx="18.03" fill="#3670ff"/><rect x="131.92" y="185.18" width="260.13" height="45.8" rx="18.03" fill="url(#linear-gradient-9)"/><circle cx="283.36" cy="113.59" r="8.24" fill="url(#linear-gradient-10)"/><circle cx="243.36" cy="107.79" r="8.24" fill="url(#linear-gradient-11)"/></svg>